<svg width="822" height="341" viewBox="0 0 822 341" fill="none" xmlns="http://www.w3.org/2000/svg">
<path fill-rule="evenodd" clip-rule="evenodd" d="M1 68L132 256L292.5 68H266L168 179L91.5 68H1ZM132 220L40 88H80.5L154.5 195L132 220Z" fill="white" stroke="black"/>
<path d="M363.222 259.2C351.726 259.2 340.881 257.067 330.689 252.8C320.615 248.415 311.726 242.43 304.022 234.844C296.437 227.259 290.452 218.43 286.067 208.356C281.8 198.281 279.667 187.496 279.667 176C279.667 164.504 281.8 153.719 286.067 143.644C290.452 133.57 296.437 124.741 304.022 117.156C311.726 109.57 320.615 103.644 330.689 99.3778C340.881 94.9926 351.726 92.8 363.222 92.8C374.6 92.8 385.267 94.9333 395.222 99.2C405.178 103.348 413.948 109.096 421.533 116.444L415.667 140.978C410.215 132.207 402.867 125.215 393.622 120C384.496 114.667 374.363 112 363.222 112C351.489 112 340.881 114.904 331.4 120.711C322.037 126.4 314.57 134.104 309 143.822C303.43 153.422 300.644 164.148 300.644 176C300.644 187.733 303.43 198.459 309 208.178C314.57 217.896 322.037 225.659 331.4 231.467C340.881 237.156 351.489 240 363.222 240C374.481 240 384.674 237.333 393.8 232C402.926 226.667 410.215 219.674 415.667 211.022L421.533 235.556C413.948 242.785 405.178 248.533 395.222 252.8C385.267 257.067 374.6 259.2 363.222 259.2ZM494.778 258.133C484.467 258.133 475.044 255.644 466.511 250.667C457.978 245.689 451.163 238.993 446.067 230.578C441.089 222.163 438.6 212.859 438.6 202.667C438.6 192.356 441.089 183.052 446.067 174.756C451.163 166.341 457.978 159.644 466.511 154.667C475.044 149.689 484.467 147.2 494.778 147.2C505.207 147.2 514.63 149.689 523.044 154.667C531.578 159.644 538.333 166.341 543.311 174.756C548.407 183.052 550.956 192.356 550.956 202.667C550.956 212.859 548.407 222.163 543.311 230.578C538.333 238.993 531.578 245.689 523.044 250.667C514.63 255.644 505.207 258.133 494.778 258.133ZM494.778 240C501.652 240 507.874 238.341 513.444 235.022C519.015 231.585 523.459 227.081 526.778 221.511C530.096 215.822 531.756 209.541 531.756 202.667C531.756 195.793 530.096 189.57 526.778 184C523.459 178.311 519.015 173.807 513.444 170.489C507.874 167.052 501.652 165.333 494.778 165.333C487.904 165.333 481.681 167.052 476.111 170.489C470.541 173.807 466.096 178.311 462.778 184C459.459 189.57 457.8 195.793 457.8 202.667C457.8 209.541 459.459 215.822 462.778 221.511C466.096 227.081 470.541 231.585 476.111 235.022C481.681 238.341 487.904 240 494.778 240ZM623.256 257.422C613.537 257.422 604.648 254.993 596.589 250.133C588.53 245.156 582.07 238.519 577.211 230.222C572.47 221.926 570.1 212.741 570.1 202.667C570.1 192.593 572.47 183.407 577.211 175.111C582.07 166.815 588.53 160.237 596.589 155.378C604.648 150.4 613.537 147.911 623.256 147.911C630.248 147.911 636.826 149.156 642.989 151.644C649.152 154.133 654.604 157.57 659.344 161.956V85.3333H678.544V256H660.767V241.956C656.026 246.696 650.396 250.489 643.878 253.333C637.478 256.059 630.604 257.422 623.256 257.422ZM625.744 240C632.5 240 638.604 238.341 644.056 235.022C649.626 231.585 654.011 227.081 657.211 221.511C660.53 215.822 662.189 209.541 662.189 202.667C662.189 195.793 660.53 189.57 657.211 184C654.011 178.311 649.626 173.807 644.056 170.489C638.604 167.052 632.5 165.333 625.744 165.333C618.989 165.333 612.826 167.052 607.256 170.489C601.804 173.807 597.419 178.311 594.1 184C590.9 189.57 589.3 195.793 589.3 202.667C589.3 209.541 590.9 215.822 594.1 221.511C597.419 227.081 601.804 231.585 607.256 235.022C612.826 238.341 618.989 240 625.744 240ZM763.411 258.133C752.27 258.133 742.256 255.644 733.367 250.667C724.596 245.689 717.663 238.933 712.567 230.4C707.589 221.748 705.1 212.148 705.1 201.6C705.1 191.526 707.53 182.4 712.389 174.222C717.248 165.926 723.767 159.348 731.944 154.489C740.241 149.63 749.367 147.2 759.322 147.2C769.159 147.2 778.167 149.57 786.344 154.311C794.522 158.933 801.041 165.215 805.9 173.156C810.759 181.096 813.189 190.104 813.189 200.178V208H743.5C740.419 208 737.278 207.881 734.078 207.644C730.878 207.407 727.737 207.052 724.656 206.578C725.959 216.059 730.226 224 737.456 230.4C744.804 236.8 753.515 240 763.589 240C770.344 240 776.626 238.459 782.433 235.378C788.241 232.296 792.922 228.207 796.478 223.111L801.811 244.978C796.715 249.126 790.848 252.385 784.211 254.756C777.693 257.007 770.759 258.133 763.411 258.133ZM724.122 193.6C730.522 192.533 736.981 192 743.5 192H778.878C781.485 192 784.033 192.119 786.522 192.356C789.13 192.474 791.737 192.652 794.344 192.889C792.685 184.593 788.537 177.778 781.9 172.444C775.263 166.993 767.737 164.267 759.322 164.267C750.67 164.267 743.085 167.17 736.567 172.978C730.048 178.667 725.9 185.541 724.122 193.6Z" fill="#8DFF0A"/>
</svg>
